<svg xmlns="http://www.w3.org/2000/svg" xmlns:xlink="http://www.w3.org/1999/xlink" width="394" height="73" viewBox="0 0 394 73">
    <defs>
        <path id="a" d="M.976.4h13.467V14H.976z"/>
        <path id="c" d="M.449.4h13.256V14H.449z"/>
        <path id="e" d="M0 73h393.379V.437H0z"/>
    </defs>
    <g fill="none" fill-rule="evenodd">
        <path fill="#FF6B1F" d="M114.461 59.231v8.145l-6.916-8.145h-2.093v13.063h2.785V64.36l6.858 7.934h2.152V59.231zM123.352 59.231v13.063h9.682v-2.517h-6.896v-2.669h6.11v-2.517h-6.11v-2.844h6.896v-2.516z"/>
        <g transform="translate(0 -.437)">
            <g transform="translate(137 59)">
                <mask id="b" fill="#fff">
                    <use xlink:href="#a"/>
                </mask>
                <path fill="#FF6B1F" d="M14.443 13.731H12.31l-.154-1.806C11.234 13.212 9.812 14 7.814 14 3.82 14 .976 10.984.976 7.373.976 3.243 4.03.4 7.892.4c2.88 0 5.649 1.594 6.397 4.841h-2.96c-.652-1.825-2.228-2.209-3.4-2.209-2.42 0-4.148 1.652-4.148 4.322 0 2.151 1.557 3.996 4.053 3.996 1.826 0 3.054-.98 3.61-2.44h-3.86V6.45h6.859v7.281z" mask="url(#b)"/>
            </g>
            <path fill="#FF6B1F" d="M164.789 58.266h-2.42l1.44-2.958h2.902l-1.922 2.958zm2.844 7.935c0-2.306-1.692-4.208-4.016-4.208-2.305 0-4.015 1.902-4.015 4.208 0 2.304 1.71 4.207 4.015 4.207 2.324 0 4.016-1.903 4.016-4.207zm2.824 0c0 3.784-3.018 6.799-6.82 6.799-3.823 0-6.84-3.015-6.84-6.8 0-3.785 3.017-6.8 6.84-6.8 3.802 0 6.82 3.015 6.82 6.8z"/>
            <g transform="translate(175 59)">
                <mask id="d" fill="#fff">
                    <use xlink:href="#c"/>
                </mask>
                <path fill="#FF6B1F" d="M10.86 8.448h2.845C13.165 11.791 10.65 14 7.269 14c-3.804 0-6.82-2.843-6.82-6.8 0-3.958 3.016-6.8 6.82-6.8 3.38 0 5.897 2.208 6.436 5.551H10.86c-.461-1.863-1.71-2.9-3.592-2.9-2.326 0-4.015 1.67-4.015 4.15 0 2.476 1.689 4.148 4.015 4.148 1.883 0 3.13-1.038 3.592-2.9" mask="url(#d)"/>
            </g>
            <mask id="f" fill="#fff">
                <use xlink:href="#e"/>
            </mask>
            <path fill="#FF6B1F" d="M194.267 72.731h2.785V59.668h-2.785zM213.41 66.2c0-2.306-1.69-4.208-4.014-4.208-2.306 0-4.015 1.902-4.015 4.208 0 2.305 1.709 4.207 4.015 4.207 2.325 0 4.014-1.902 4.014-4.207m2.824 0c0 3.784-3.015 6.8-6.838 6.8-3.804 0-6.82-3.016-6.82-6.8 0-3.785 3.016-6.8 6.82-6.8 3.823 0 6.838 3.015 6.838 6.8M232.04 63.664h-2.747c-.172-1.152-.902-1.921-2.48-1.921-1.362 0-2.264.576-2.264 1.594 0 .884.652 1.268 1.844 1.499l1.613.326c2.498.538 3.976 1.499 3.976 3.689 0 2.498-2.054 4.149-5.185 4.149-3.151 0-5.494-1.671-5.725-4.591h2.766c.21 1.325 1.363 2.151 3.11 2.151 1.386 0 2.154-.518 2.154-1.402 0-.538-.307-1.095-1.633-1.345l-2.133-.403c-2.594-.518-3.727-1.806-3.727-3.842 0-2.517 1.998-4.188 4.995-4.188 2.19 0 5.128.903 5.437 4.284M250.588 70.177c2.323 0 4.168-1.768 4.168-4.034 0-2.191-1.845-3.94-4.168-3.94h-2.308v7.974h2.308zm0-10.51c4.013 0 6.992 2.748 6.992 6.476 0 3.804-2.978 6.589-6.992 6.589h-5.093V59.668h5.093zM265.841 65.028h6.11v2.517h-6.11v2.67h6.896v2.516h-9.68V59.668h9.68v2.516h-6.896zM285.943 72.731h2.785V59.668h-2.785zM308.535 72.731h-2.785v-7.089l-3.266 5.13h-1.633v-.02l-3.285-5.167.039 7.146H294.8V59.668h1.998l4.879 7.684 4.878-7.684h1.979zM319.666 66.642c1.574 0 2.63-.941 2.63-2.344 0-1.267-1.056-2.093-2.63-2.093h-2.23v4.437h2.23zm.096-6.974c3.189 0 5.283 1.826 5.283 4.63 0 2.94-2.23 4.86-5.65 4.86h-1.958v3.574h-2.785V59.668h5.11zM334.921 62.915L333 67.698h3.861l-1.939-4.783zm-2.939 7.3l-1.018 2.516h-2.959l5.63-13.14h2.612l5.61 13.14h-2.94l-1.019-2.516h-5.916zM355.957 67.448h2.844c-.54 3.343-3.055 5.552-6.436 5.552-3.804 0-6.82-2.843-6.82-6.8 0-3.958 3.016-6.8 6.82-6.8 3.38 0 5.897 2.208 6.436 5.551h-2.844c-.461-1.863-1.71-2.9-3.592-2.9-2.326 0-4.015 1.67-4.015 4.15 0 2.476 1.689 4.148 4.015 4.148 1.883 0 3.13-1.038 3.592-2.9M370.244 62.204v10.527h-2.785V62.204h-4.361v-2.536h11.507v2.536zM389.609 66.2c0-2.306-1.691-4.208-4.016-4.208-2.304 0-4.015 1.902-4.015 4.208 0 2.305 1.71 4.207 4.015 4.207 2.325 0 4.016-1.902 4.016-4.207m2.824 0c0 3.784-3.017 6.8-6.84 6.8-3.802 0-6.82-3.016-6.82-6.8 0-3.785 3.018-6.8 6.82-6.8 3.823 0 6.84 3.015 6.84 6.8" mask="url(#f)"/>
            <path fill="#004650" d="M204.71 36.469c-7.738 0-14.031-6.294-14.031-14.031 0-7.738 6.293-14.032 14.03-14.032 7.737 0 14.032 6.294 14.032 14.032 0 7.737-6.295 14.03-14.032 14.03zm14.543-35.113v6.822c-3.355-5.505-9.346-7.74-14.543-7.74-12.132 0-22 9.868-22 22 0 12.13 9.868 22 22 22 5.475 0 11.268-3.311 14.543-7.3v6.475h7.457V1.356h-7.457zM135.765 8.652V.875h-31.259v7.777h11.74v27.492h-11.74v7.778h31.26v-7.778h-11.742V8.652zM252.102 8.652h11.71V.875h-11.71zM252.102 13.018h-19.549v7.776h11.74v15.35h-11.74v7.778h31.26v-7.777H252.07zM301.793.875h-31.259v7.777h11.74v35.27h7.779V8.652h11.74zM384.888 28.414c-1.434 4.501-6.516 8.056-12.113 8.056-7.738 0-13.717-6.294-13.717-14.032 0-7.736 5.98-14.03 13.717-14.03 6.3 0 10.592 3.49 11.854 8.055h8.49C390.51 7.228 382.833.44 372.775.44c-12.13 0-21.999 9.869-21.999 21.998 0 12.131 9.868 21.999 22 21.999 10.057 0 17.992-6.788 20.603-16.023h-8.49zM325.311 8.214c6.342 0 11.205 4.223 12.436 10.209h-25.392c1.346-5.87 6.614-10.21 12.956-10.21zm8.136 24.536c-1.564 1.983-5.282 3.986-8.862 3.83-6.426-.281-11.304-5.337-12.23-10.204h33.37c.424-1.982.458-3.976.458-3.976 0-12.7-8.059-21.96-20.872-21.96-12.108 0-21.958 9.85-21.958 21.96 0 12.107 9.85 21.957 21.958 21.957a21.911 21.911 0 0 0 19.364-11.607h-11.228zM178.811 43.922V.91h-7.776v30.698L151.603.875h-9.109v43.272h7.777V13.156l19.202 30.766z" mask="url(#f)"/>
            <path fill="#FF6B1F" d="M14.268 9.562c.684 0 1.366.135 2.002.402a5.202 5.202 0 0 1 2.465 2.187l30.246 52.39a12.79 12.79 0 0 0 2.181 2.915 12.66 12.66 0 0 0 4.041 2.724 12.806 12.806 0 0 0 9.903 0 12.678 12.678 0 0 0 4.042-2.724 12.697 12.697 0 0 0 3.724-8.994V14.706c0-7.012-5.705-12.717-12.717-12.717-7.013 0-12.718 5.705-12.718 12.717v24.022a3.79 3.79 0 0 0 3.787 3.786 3.79 3.79 0 0 0 3.787-3.787v-24.02a5.15 5.15 0 0 1 5.144-5.145 5.15 5.15 0 0 1 5.143 5.145v43.755a5.08 5.08 0 0 1-.404 2.002 5.092 5.092 0 0 1-1.103 1.636 5.104 5.104 0 0 1-1.636 1.103 5.152 5.152 0 0 1-4 0 5.125 5.125 0 0 1-1.638-1.104 5.2 5.2 0 0 1-.893-1.198l-.056-.103-30.272-52.43a12.76 12.76 0 0 0-6.075-5.378 12.777 12.777 0 0 0-9.902-.002 12.66 12.66 0 0 0-4.043 2.725 12.67 12.67 0 0 0-2.723 4.04 12.635 12.635 0 0 0-1.002 4.954v43.755c0 7.013 5.705 12.718 12.718 12.718s12.718-5.705 12.718-12.718V34.144a3.792 3.792 0 0 0-3.787-3.788 3.791 3.791 0 0 0-3.787 3.789v24.319a5.15 5.15 0 0 1-5.144 5.143 5.15 5.15 0 0 1-5.144-5.144V14.706a5.123 5.123 0 0 1 1.506-3.637 5.165 5.165 0 0 1 1.638-1.104 5.147 5.147 0 0 1 2-.403m45.886 63.17a14.18 14.18 0 0 1-5.557-1.124 14.208 14.208 0 0 1-4.533-3.056 14.242 14.242 0 0 1-2.436-3.253L17.39 12.925a3.584 3.584 0 0 0-.582-.76 3.573 3.573 0 0 0-1.143-.771 3.662 3.662 0 0 0-2.793 0c-.426.18-.81.44-1.144.772a3.565 3.565 0 0 0-1.051 2.54v43.757a3.596 3.596 0 0 0 3.592 3.591 3.596 3.596 0 0 0 3.592-3.592V34.144a5.345 5.345 0 0 1 5.34-5.338 5.345 5.345 0 0 1 5.337 5.339v24.319c0 7.869-6.4 14.268-14.269 14.268-7.868 0-14.27-6.4-14.27-14.268V14.706a14.236 14.236 0 0 1 4.18-10.09A14.217 14.217 0 0 1 8.714 1.56a14.335 14.335 0 0 1 11.112.002 14.207 14.207 0 0 1 4.532 3.054 14.258 14.258 0 0 1 2.281 2.976l30.35 52.57a3.615 3.615 0 0 0 1.77 1.614c.873.368 1.917.37 2.791 0a3.59 3.59 0 0 0 1.145-.774 3.566 3.566 0 0 0 1.052-2.54V14.706a3.596 3.596 0 0 0-3.592-3.591 3.596 3.596 0 0 0-3.593 3.591v24.022a5.345 5.345 0 0 1-5.338 5.338 5.345 5.345 0 0 1-5.338-5.339v-24.02c0-7.87 6.401-14.27 14.27-14.27 7.866 0 14.267 6.4 14.267 14.27v43.755c0 1.923-.378 3.792-1.123 5.555a14.198 14.198 0 0 1-3.055 4.535 14.203 14.203 0 0 1-4.535 3.055 14.163 14.163 0 0 1-5.555 1.124" mask="url(#f)"/>
            <path fill="#FF6B1F" d="M14.27 1.988a3.79 3.79 0 0 0-3.788 3.787 3.79 3.79 0 0 0 3.787 3.787 5.12 5.12 0 0 1 3.636 1.506c.323.323.602.688.83 1.083l30.246 52.39a12.79 12.79 0 0 0 2.181 2.914 12.66 12.66 0 0 0 4.041 2.724 12.644 12.644 0 0 0 4.952 1.001 3.791 3.791 0 0 0 3.787-3.787 3.79 3.79 0 0 0-3.787-3.787 5.11 5.11 0 0 1-3.638-1.507 5.18 5.18 0 0 1-.893-1.199l-.056-.1L25.296 8.366a12.754 12.754 0 0 0-6.075-5.378 12.647 12.647 0 0 0-4.952-1M60.155 72.73a14.18 14.18 0 0 1-5.557-1.124 14.208 14.208 0 0 1-4.533-3.056 14.236 14.236 0 0 1-2.436-3.25L17.39 12.925a3.565 3.565 0 0 0-.582-.76 3.59 3.59 0 0 0-1.143-.773 3.58 3.58 0 0 0-1.396-.279 5.345 5.345 0 0 1-5.338-5.339A5.345 5.345 0 0 1 14.27.437c1.925 0 3.794.378 5.557 1.124a14.29 14.29 0 0 1 6.813 6.031l30.35 52.57a3.614 3.614 0 0 0 1.77 1.613c.44.186.908.28 1.396.28a5.346 5.346 0 0 1 5.34 5.338 5.345 5.345 0 0 1-5.34 5.338" mask="url(#f)"/>
        </g>
    </g>
</svg>
