<?xml version="1.0" encoding="utf-8"?>
<svg id="svg" version="1.1" xmlns="http://www.w3.org/2000/svg" width="400" height="400" viewBox="0, 0, 400,400" xmlns:bx="https://boxy-svg.com"><defs><bx:export><bx:file format="svg"/><bx:file format="png" excluded="true"/></bx:export></defs><g id="svgg"><path id="path1" d="M 188.182 93.849 C 146.482 98.31 110.746 128.628 100.421 168.307 C 98.076 177.313 98.56 176.915 91.642 175.449 C 62.004 169.175 31.447 184.543 18.327 212.325 C -2.446 256.307 30.915 307.867 79.158 306.332 L 86.862 306.085 L 115.909 277.674 L 144.956 249.256 L 153.084 257.585 C 157.555 262.164 161.211 266.146 161.211 266.436 C 161.211 266.72 152.205 275.843 141.196 286.702 L 121.178 306.444 L 132.976 306.474 L 144.77 306.51 L 183.613 267.669 L 222.46 228.834 L 252.723 259.454 C 269.368 276.292 286.655 293.813 291.145 298.387 L 299.303 306.699 L 314.331 306.314 C 350.48 305.39 374.94 287.227 385.082 253.778 C 399.824 205.166 355.592 153.587 306.606 162.265 C 303.823 162.757 300.168 163.405 298.485 163.707 L 295.417 164.254 L 293.573 159.314 C 277.625 116.539 233.326 89.021 188.182 93.849 M 219.47 112.112 C 248.776 119.593 272.463 142.867 280.499 172.065 C 283.678 183.636 286.202 185.073 296.759 181.357 C 323.203 172.049 352.059 182.915 364.614 206.909 C 384.892 245.661 358.041 290.493 314.551 290.493 L 306.369 290.493 L 289.551 273.425 C 280.303 264.04 262.342 245.824 249.635 232.952 L 226.533 209.549 L 222.774 209.563 L 219.021 209.581 L 196.209 232.331 L 173.402 255.086 L 160.789 242.447 C 142.746 224.378 149.4 221.537 103.787 266.736 L 79.654 290.65 L 73.867 290.042 C 31.067 285.561 12.959 235.463 43.232 205.273 C 57.887 190.653 75.961 186.802 96.502 193.932 C 109.201 198.333 111.645 196.937 113.573 184.175 C 121.28 133.141 170.541 99.619 219.47 112.112" stroke="none" fill-rule="evenodd" style="fill: rgb(17, 81, 189);"/></g></svg>